<svg xmlns="http://www.w3.org/2000/svg" width="900" height="520" viewBox="0 0 900 520">
  <rect width="100%" height="100%" fill="white" />
  <text x="450.0" y="28" text-anchor="middle" font-size="18">Pareto Frontier vs MLX Feasible Set</text>
  <line x1="86" y1="54" x2="86" y2="434" stroke="#111827" />
  <line x1="86" y1="434" x2="848" y2="434" stroke="#111827" />
  <text x="450.0" y="496" text-anchor="middle" font-size="13">Memory saved vs full KV (%)</text>
  <text x="24" y="244.0" transform="rotate(-90 24,244.0)" text-anchor="middle" font-size="13">Quality loss prior</text>
  <text x="94" y="72" font-size="12" fill="#2563eb">filled = MLX feasible</text>
  <text x="94" y="90" font-size="12" fill="#dc2626">dashed = theoretical only</text>
  <circle cx="86.0" cy="434.0" r="7" fill="white" stroke="#dc2626" stroke-width="2" stroke-dasharray="4 3" />
<text x="95.0" y="426.0" font-size="12">full_16</text>
<circle cx="454.3" cy="434.0" r="7" fill="white" stroke="#dc2626" stroke-width="2" stroke-dasharray="4 3" />
<text x="463.3" y="426.0" font-size="12">full_8</text>
<circle cx="478.6" cy="273.8" r="6" fill="#2563eb" stroke="#2563eb" stroke-width="2" />
<text x="487.6" y="265.8" font-size="12">r50_b16</text>
<circle cx="558.5" cy="379.1" r="7" fill="white" stroke="#dc2626" stroke-width="2" stroke-dasharray="4 3" />
<text x="567.5" y="371.1" font-size="12">r75_b8</text>
<circle cx="662.8" cy="273.8" r="7" fill="white" stroke="#dc2626" stroke-width="2" stroke-dasharray="4 3" />
<text x="671.8" y="265.8" font-size="12">r50_b8</text>
<circle cx="767.0" cy="228.0" r="7" fill="white" stroke="#dc2626" stroke-width="2" stroke-dasharray="4 3" />
<text x="776.0" y="220.0" font-size="12">r50_b4</text>
<circle cx="808.7" cy="90.6" r="7" fill="white" stroke="#dc2626" stroke-width="2" stroke-dasharray="4 3" />
<text x="817.7" y="82.6" font-size="12">r30_b4</text>
</svg>
