<svg xmlns="http://www.w3.org/2000/svg" width="860" height="344" viewBox="0 0 860 344">
  <rect width="100%" height="100%" fill="white" />
  <text x="430.0" y="28" text-anchor="middle" font-size="18">Checkpoint 4 Policy Action by Regime</text>
  <text x="190" y="48" font-size="12">estimated KV cache relative to full KV</text>
  <text x="16" y="82" font-size="13">under_saturated / 3072</text>
<rect x="190" y="66" width="420" height="18" fill="#e5e7eb" />
<rect x="190" y="66" width="223.0" height="18" fill="#2563eb" />
<text x="622" y="81" font-size="13">full_8 (51.0 MB, budget 352.0)</text>
<text x="16" y="124" font-size="13">saturation / 3072</text>
<rect x="190" y="108" width="420" height="18" fill="#e5e7eb" />
<rect x="190" y="108" width="210.0" height="18" fill="#f97316" />
<text x="622" y="123" font-size="13">r50_b16 (48.0 MB, budget 49.4)</text>
<text x="16" y="166" font-size="13">contention / 3072</text>
<rect x="190" y="150" width="420" height="18" fill="#e5e7eb" />
<rect x="190" y="150" width="210.0" height="18" fill="#f97316" />
<text x="622" y="165" font-size="13">r50_b16 (48.0 MB, budget 49.4)</text>
<text x="16" y="208" font-size="13">under_saturated / 10000</text>
<rect x="190" y="192" width="420" height="18" fill="#e5e7eb" />
<rect x="190" y="192" width="223.0" height="18" fill="#2563eb" />
<text x="622" y="207" font-size="13">full_8 (165.9 MB, budget 625.0)</text>
<text x="16" y="250" font-size="13">saturation / 10000</text>
<rect x="190" y="234" width="420" height="18" fill="#e5e7eb" />
<rect x="190" y="234" width="210.0" height="18" fill="#f97316" />
<text x="622" y="249" font-size="13">r50_b16 (156.2 MB, budget 160.9)</text>
<text x="16" y="292" font-size="13">contention / 10000</text>
<rect x="190" y="276" width="420" height="18" fill="#e5e7eb" />
<rect x="190" y="276" width="210.0" height="18" fill="#f97316" />
<text x="622" y="291" font-size="13">r50_b16 (156.2 MB, budget 160.9)</text>
</svg>
