<svg xmlns="http://www.w3.org/2000/svg" width="900" height="326" viewBox="0 0 900 326">
  <rect width="100%" height="100%" fill="white" />
  <text x="450.0" y="28" text-anchor="middle" font-size="18">Checkpoint 5 Runtime Policy Decisions</text>
  <text x="210" y="46" font-size="12">selected KV cache relative to full KV</text>
  <text x="18" y="76" font-size="13">under_saturated / 3072</text>
<rect x="210" y="61" width="430" height="17" fill="#e5e7eb" />
<rect x="210" y="61" width="228.3" height="17" fill="#2563eb" />
<text x="652" y="75" font-size="13">full_8 (51.0 MB / 352.0 MB)</text>
<text x="18" y="114" font-size="13">saturation / 3072</text>
<rect x="210" y="99" width="430" height="17" fill="#e5e7eb" />
<rect x="210" y="99" width="221.2" height="17" fill="#16a34a" />
<text x="652" y="113" font-size="13">dynamic_r514_b16 (49.4 MB / 49.4 MB)</text>
<text x="18" y="152" font-size="13">contention / 3072</text>
<rect x="210" y="137" width="430" height="17" fill="#e5e7eb" />
<rect x="210" y="137" width="221.2" height="17" fill="#16a34a" />
<text x="652" y="151" font-size="13">dynamic_r514_b16 (49.4 MB / 49.4 MB)</text>
<text x="18" y="190" font-size="13">under_saturated / 10000</text>
<rect x="210" y="175" width="430" height="17" fill="#e5e7eb" />
<rect x="210" y="175" width="228.3" height="17" fill="#2563eb" />
<text x="652" y="189" font-size="13">full_8 (165.9 MB / 625.0 MB)</text>
<text x="18" y="228" font-size="13">saturation / 10000</text>
<rect x="210" y="213" width="430" height="17" fill="#e5e7eb" />
<rect x="210" y="213" width="221.2" height="17" fill="#16a34a" />
<text x="652" y="227" font-size="13">dynamic_r514_b16 (160.8 MB / 160.9 MB)</text>
<text x="18" y="266" font-size="13">contention / 10000</text>
<rect x="210" y="251" width="430" height="17" fill="#e5e7eb" />
<rect x="210" y="251" width="221.2" height="17" fill="#16a34a" />
<text x="652" y="265" font-size="13">dynamic_r514_b16 (160.8 MB / 160.9 MB)</text>
</svg>
