<svg xmlns="http://www.w3.org/2000/svg" width="900" height="1056" viewBox="0 0 900 1056">
  <rect width="100%" height="100%" fill="white" />
  <text x="450.0" y="26" text-anchor="middle" font-size="18">Needle Failure Map</text>
  <rect x="18" y="42" width="12" height="12" fill="#dc2626" />
<text x="40" y="52" font-size="12">r30_b16 | r=0.30 | early | success=0.00 | mode=proxy</text>
<rect x="18" y="67" width="12" height="12" fill="#dc2626" />
<text x="40" y="77" font-size="12">r30_b4 | r=0.30 | early | success=0.00 | mode=proxy</text>
<rect x="18" y="92" width="12" height="12" fill="#16a34a" />
<text x="40" y="102" font-size="12">r30_b16 | r=0.30 | late | success=1.00 | mode=proxy</text>
<rect x="18" y="117" width="12" height="12" fill="#dc2626" />
<text x="40" y="127" font-size="12">r30_b4 | r=0.30 | late | success=0.00 | mode=proxy</text>
<rect x="18" y="142" width="12" height="12" fill="#dc2626" />
<text x="40" y="152" font-size="12">r30_b16 | r=0.30 | middle | success=0.00 | mode=proxy</text>
<rect x="18" y="167" width="12" height="12" fill="#dc2626" />
<text x="40" y="177" font-size="12">r30_b4 | r=0.30 | middle | success=0.00 | mode=proxy</text>
<rect x="18" y="192" width="12" height="12" fill="#16a34a" />
<text x="40" y="202" font-size="12">r30_b16 | r=0.30 | sink | success=1.00 | mode=proxy</text>
<rect x="18" y="217" width="12" height="12" fill="#dc2626" />
<text x="40" y="227" font-size="12">r30_b4 | r=0.30 | sink | success=0.00 | mode=proxy</text>
<rect x="18" y="242" width="12" height="12" fill="#16a34a" />
<text x="40" y="252" font-size="12">r30_b16 | r=0.30 | very_late | success=1.00 | mode=proxy</text>
<rect x="18" y="267" width="12" height="12" fill="#dc2626" />
<text x="40" y="277" font-size="12">r30_b4 | r=0.30 | very_late | success=0.00 | mode=proxy</text>
<rect x="18" y="292" width="12" height="12" fill="#dc2626" />
<text x="40" y="302" font-size="12">r50_b16 | r=0.50 | early | success=0.00 | mode=proxy</text>
<rect x="18" y="317" width="12" height="12" fill="#dc2626" />
<text x="40" y="327" font-size="12">r50_b8 | r=0.50 | early | success=0.00 | mode=proxy</text>
<rect x="18" y="342" width="12" height="12" fill="#16a34a" />
<text x="40" y="352" font-size="12">r50_b16 | r=0.50 | late | success=1.00 | mode=proxy</text>
<rect x="18" y="367" width="12" height="12" fill="#16a34a" />
<text x="40" y="377" font-size="12">r50_b8 | r=0.50 | late | success=1.00 | mode=proxy</text>
<rect x="18" y="392" width="12" height="12" fill="#dc2626" />
<text x="40" y="402" font-size="12">r50_b16 | r=0.50 | middle | success=0.00 | mode=proxy</text>
<rect x="18" y="417" width="12" height="12" fill="#dc2626" />
<text x="40" y="427" font-size="12">r50_b8 | r=0.50 | middle | success=0.00 | mode=proxy</text>
<rect x="18" y="442" width="12" height="12" fill="#16a34a" />
<text x="40" y="452" font-size="12">r50_b16 | r=0.50 | sink | success=1.00 | mode=proxy</text>
<rect x="18" y="467" width="12" height="12" fill="#16a34a" />
<text x="40" y="477" font-size="12">r50_b8 | r=0.50 | sink | success=1.00 | mode=proxy</text>
<rect x="18" y="492" width="12" height="12" fill="#16a34a" />
<text x="40" y="502" font-size="12">r50_b16 | r=0.50 | very_late | success=1.00 | mode=proxy</text>
<rect x="18" y="517" width="12" height="12" fill="#16a34a" />
<text x="40" y="527" font-size="12">r50_b8 | r=0.50 | very_late | success=1.00 | mode=proxy</text>
<rect x="18" y="542" width="12" height="12" fill="#dc2626" />
<text x="40" y="552" font-size="12">r75_b16 | r=0.75 | early | success=0.00 | mode=proxy</text>
<rect x="18" y="567" width="12" height="12" fill="#dc2626" />
<text x="40" y="577" font-size="12">r75_b8 | r=0.75 | early | success=0.00 | mode=proxy</text>
<rect x="18" y="592" width="12" height="12" fill="#16a34a" />
<text x="40" y="602" font-size="12">r75_b16 | r=0.75 | late | success=1.00 | mode=proxy</text>
<rect x="18" y="617" width="12" height="12" fill="#16a34a" />
<text x="40" y="627" font-size="12">r75_b8 | r=0.75 | late | success=1.00 | mode=proxy</text>
<rect x="18" y="642" width="12" height="12" fill="#16a34a" />
<text x="40" y="652" font-size="12">r75_b16 | r=0.75 | middle | success=1.00 | mode=proxy</text>
<rect x="18" y="667" width="12" height="12" fill="#16a34a" />
<text x="40" y="677" font-size="12">r75_b8 | r=0.75 | middle | success=1.00 | mode=proxy</text>
<rect x="18" y="692" width="12" height="12" fill="#16a34a" />
<text x="40" y="702" font-size="12">r75_b16 | r=0.75 | sink | success=1.00 | mode=proxy</text>
<rect x="18" y="717" width="12" height="12" fill="#16a34a" />
<text x="40" y="727" font-size="12">r75_b8 | r=0.75 | sink | success=1.00 | mode=proxy</text>
<rect x="18" y="742" width="12" height="12" fill="#16a34a" />
<text x="40" y="752" font-size="12">r75_b16 | r=0.75 | very_late | success=1.00 | mode=proxy</text>
<rect x="18" y="767" width="12" height="12" fill="#16a34a" />
<text x="40" y="777" font-size="12">r75_b8 | r=0.75 | very_late | success=1.00 | mode=proxy</text>
<rect x="18" y="792" width="12" height="12" fill="#16a34a" />
<text x="40" y="802" font-size="12">full_16 | r=1.00 | early | success=1.00 | mode=proxy</text>
<rect x="18" y="817" width="12" height="12" fill="#16a34a" />
<text x="40" y="827" font-size="12">full_8 | r=1.00 | early | success=1.00 | mode=proxy</text>
<rect x="18" y="842" width="12" height="12" fill="#16a34a" />
<text x="40" y="852" font-size="12">full_16 | r=1.00 | late | success=1.00 | mode=proxy</text>
<rect x="18" y="867" width="12" height="12" fill="#16a34a" />
<text x="40" y="877" font-size="12">full_8 | r=1.00 | late | success=1.00 | mode=proxy</text>
<rect x="18" y="892" width="12" height="12" fill="#16a34a" />
<text x="40" y="902" font-size="12">full_16 | r=1.00 | middle | success=1.00 | mode=proxy</text>
<rect x="18" y="917" width="12" height="12" fill="#16a34a" />
<text x="40" y="927" font-size="12">full_8 | r=1.00 | middle | success=1.00 | mode=proxy</text>
<rect x="18" y="942" width="12" height="12" fill="#16a34a" />
<text x="40" y="952" font-size="12">full_16 | r=1.00 | sink | success=1.00 | mode=proxy</text>
<rect x="18" y="967" width="12" height="12" fill="#16a34a" />
<text x="40" y="977" font-size="12">full_8 | r=1.00 | sink | success=1.00 | mode=proxy</text>
<rect x="18" y="992" width="12" height="12" fill="#16a34a" />
<text x="40" y="1002" font-size="12">full_16 | r=1.00 | very_late | success=1.00 | mode=proxy</text>
<rect x="18" y="1017" width="12" height="12" fill="#16a34a" />
<text x="40" y="1027" font-size="12">full_8 | r=1.00 | very_late | success=1.00 | mode=proxy</text>
</svg>
