<svg xmlns="http://www.w3.org/2000/svg" width="900" height="500" viewBox="0 0 900 500">
  <rect width="100%" height="100%" fill="white" />
  <text x="450.0" y="26" text-anchor="middle" font-size="18">Pareto Frontier: Theoretical vs Feasible</text>
  <line x1="72" y1="48" x2="72" y2="388" stroke="#111827" />
  <line x1="72" y1="388" x2="792" y2="388" stroke="#111827" />
  <text x="432.0" y="468" text-anchor="middle" font-size="12">memory saved vs full KV (%)</text>
  <text x="22" y="218.0" transform="rotate(-90 22,218.0)" text-anchor="middle" font-size="12">accuracy / task score</text>
  <text x="72" y="428" font-size="12" fill="#2563eb">blue = feasible real</text>
  <text x="242" y="428" font-size="12" fill="#f97316">orange = theoretical-only</text>
  <text x="462" y="428" font-size="12" fill="#94a3b8">gray = budget/backend infeasible</text>
  <circle cx="72.0" cy="48.0" r="5" fill="#2563eb" />
<text x="79.0" y="42.0" font-size="10">under_saturated:Full KV</text>
<circle cx="409.7" cy="48.0" r="5" fill="#2563eb" />
<text x="416.7" y="42.0" font-size="10">under_saturated:Quantized 8-bit</text>
<circle cx="432.0" cy="261.0" r="5" fill="#2563eb" />
<text x="439.0" y="255.0" font-size="10">under_saturated:Retention-only</text>
<circle cx="505.3" cy="153.9" r="5" fill="#f97316" />
<text x="512.3" y="147.9" font-size="10">under_saturated:Hybrid conservative</text>
<circle cx="600.8" cy="261.0" r="5" fill="#f97316" />
<text x="607.8" y="255.0" font-size="10">under_saturated:Hybrid balanced</text>
<circle cx="734.7" cy="277.6" r="5" fill="#f97316" />
<text x="741.7" y="271.6" font-size="10">under_saturated:Hybrid aggressive</text>
<circle cx="409.7" cy="48.0" r="5" fill="#f97316" />
<text x="416.7" y="42.0" font-size="10">under_saturated:Ideal dynamic q8</text>
<circle cx="409.7" cy="48.0" r="5" fill="#2563eb" />
<text x="416.7" y="42.0" font-size="10">under_saturated:Adaptive Lumina</text>
<circle cx="72.0" cy="54.8" r="5" fill="#94a3b8" />
<text x="79.0" y="48.8" font-size="10">saturation:Full KV</text>
<circle cx="409.7" cy="54.8" r="5" fill="#94a3b8" />
<text x="416.7" y="48.8" font-size="10">saturation:Quantized 8-bit</text>
<circle cx="432.0" cy="261.0" r="5" fill="#2563eb" />
<text x="439.0" y="255.0" font-size="10">saturation:Retention-only</text>
<circle cx="505.3" cy="153.9" r="5" fill="#f97316" />
<text x="512.3" y="147.9" font-size="10">saturation:Hybrid conservative</text>
<circle cx="600.8" cy="261.0" r="5" fill="#f97316" />
<text x="607.8" y="255.0" font-size="10">saturation:Hybrid balanced</text>
<circle cx="734.7" cy="277.6" r="5" fill="#f97316" />
<text x="741.7" y="271.6" font-size="10">saturation:Hybrid aggressive</text>
<circle cx="421.6" cy="48.2" r="5" fill="#f97316" />
<text x="428.6" y="42.2" font-size="10">saturation:Ideal dynamic q8</text>
<circle cx="421.6" cy="156.2" r="5" fill="#2563eb" />
<text x="428.6" y="150.2" font-size="10">saturation:Adaptive Lumina</text>
<circle cx="72.0" cy="54.8" r="5" fill="#94a3b8" />
<text x="79.0" y="48.8" font-size="10">contention:Full KV</text>
<circle cx="409.7" cy="54.8" r="5" fill="#94a3b8" />
<text x="416.7" y="48.8" font-size="10">contention:Quantized 8-bit</text>
<circle cx="432.0" cy="261.0" r="5" fill="#2563eb" />
<text x="439.0" y="255.0" font-size="10">contention:Retention-only</text>
<circle cx="505.3" cy="153.9" r="5" fill="#f97316" />
<text x="512.3" y="147.9" font-size="10">contention:Hybrid conservative</text>
<circle cx="600.8" cy="261.0" r="5" fill="#f97316" />
<text x="607.8" y="255.0" font-size="10">contention:Hybrid balanced</text>
<circle cx="734.7" cy="277.6" r="5" fill="#f97316" />
<text x="741.7" y="271.6" font-size="10">contention:Hybrid aggressive</text>
<circle cx="421.6" cy="48.2" r="5" fill="#f97316" />
<text x="428.6" y="42.2" font-size="10">contention:Ideal dynamic q8</text>
<circle cx="421.6" cy="156.2" r="5" fill="#2563eb" />
<text x="428.6" y="150.2" font-size="10">contention:Adaptive Lumina</text>
</svg>
