<svg xmlns="http://www.w3.org/2000/svg" width="860" height="430" viewBox="0 0 860 430">
  <rect width="100%" height="100%" fill="white" />
  <text x="430.0" y="24" text-anchor="middle" font-size="18">Needle Retrieval vs Retention</text>
  <line x1="70" y1="42" x2="70" y2="342" stroke="#111827" />
  <line x1="70" y1="342" x2="760" y2="342" stroke="#111827" />
  <text x="415.0" y="398" text-anchor="middle" font-size="12">retention ratio r</text>
  <text x="20" y="192.0" transform="rotate(-90 20,192.0)" text-anchor="middle" font-size="12">retrieval success</text>
  <circle cx="277.0" cy="342.0" r="4" fill="#dc2626" />
<text x="283.0" y="336.0" font-size="10">early</text>
<circle cx="277.0" cy="342.0" r="4" fill="#dc2626" />
<text x="283.0" y="336.0" font-size="10">early</text>
<circle cx="277.0" cy="42.0" r="4" fill="#2563eb" />
<text x="283.0" y="36.0" font-size="10">late</text>
<circle cx="277.0" cy="342.0" r="4" fill="#2563eb" />
<text x="283.0" y="336.0" font-size="10">late</text>
<circle cx="277.0" cy="342.0" r="4" fill="#f97316" />
<text x="283.0" y="336.0" font-size="10">middle</text>
<circle cx="277.0" cy="342.0" r="4" fill="#f97316" />
<text x="283.0" y="336.0" font-size="10">middle</text>
<circle cx="277.0" cy="42.0" r="4" fill="#0f172a" />
<text x="283.0" y="36.0" font-size="10">sink</text>
<circle cx="277.0" cy="342.0" r="4" fill="#0f172a" />
<text x="283.0" y="336.0" font-size="10">sink</text>
<circle cx="277.0" cy="42.0" r="4" fill="#16a34a" />
<text x="283.0" y="36.0" font-size="10">very_late</text>
<circle cx="277.0" cy="342.0" r="4" fill="#16a34a" />
<text x="283.0" y="336.0" font-size="10">very_late</text>
<circle cx="415.0" cy="342.0" r="4" fill="#dc2626" />
<text x="421.0" y="336.0" font-size="10">early</text>
<circle cx="415.0" cy="342.0" r="4" fill="#dc2626" />
<text x="421.0" y="336.0" font-size="10">early</text>
<circle cx="415.0" cy="42.0" r="4" fill="#2563eb" />
<text x="421.0" y="36.0" font-size="10">late</text>
<circle cx="415.0" cy="42.0" r="4" fill="#2563eb" />
<text x="421.0" y="36.0" font-size="10">late</text>
<circle cx="415.0" cy="342.0" r="4" fill="#f97316" />
<text x="421.0" y="336.0" font-size="10">middle</text>
<circle cx="415.0" cy="342.0" r="4" fill="#f97316" />
<text x="421.0" y="336.0" font-size="10">middle</text>
<circle cx="415.0" cy="42.0" r="4" fill="#0f172a" />
<text x="421.0" y="36.0" font-size="10">sink</text>
<circle cx="415.0" cy="42.0" r="4" fill="#0f172a" />
<text x="421.0" y="36.0" font-size="10">sink</text>
<circle cx="415.0" cy="42.0" r="4" fill="#16a34a" />
<text x="421.0" y="36.0" font-size="10">very_late</text>
<circle cx="415.0" cy="42.0" r="4" fill="#16a34a" />
<text x="421.0" y="36.0" font-size="10">very_late</text>
<circle cx="587.5" cy="342.0" r="4" fill="#dc2626" />
<text x="593.5" y="336.0" font-size="10">early</text>
<circle cx="587.5" cy="342.0" r="4" fill="#dc2626" />
<text x="593.5" y="336.0" font-size="10">early</text>
<circle cx="587.5" cy="42.0" r="4" fill="#2563eb" />
<text x="593.5" y="36.0" font-size="10">late</text>
<circle cx="587.5" cy="42.0" r="4" fill="#2563eb" />
<text x="593.5" y="36.0" font-size="10">late</text>
<circle cx="587.5" cy="42.0" r="4" fill="#f97316" />
<text x="593.5" y="36.0" font-size="10">middle</text>
<circle cx="587.5" cy="42.0" r="4" fill="#f97316" />
<text x="593.5" y="36.0" font-size="10">middle</text>
<circle cx="587.5" cy="42.0" r="4" fill="#0f172a" />
<text x="593.5" y="36.0" font-size="10">sink</text>
<circle cx="587.5" cy="42.0" r="4" fill="#0f172a" />
<text x="593.5" y="36.0" font-size="10">sink</text>
<circle cx="587.5" cy="42.0" r="4" fill="#16a34a" />
<text x="593.5" y="36.0" font-size="10">very_late</text>
<circle cx="587.5" cy="42.0" r="4" fill="#16a34a" />
<text x="593.5" y="36.0" font-size="10">very_late</text>
<circle cx="760.0" cy="42.0" r="4" fill="#dc2626" />
<text x="766.0" y="36.0" font-size="10">early</text>
<circle cx="760.0" cy="42.0" r="4" fill="#dc2626" />
<text x="766.0" y="36.0" font-size="10">early</text>
<circle cx="760.0" cy="42.0" r="4" fill="#2563eb" />
<text x="766.0" y="36.0" font-size="10">late</text>
<circle cx="760.0" cy="42.0" r="4" fill="#2563eb" />
<text x="766.0" y="36.0" font-size="10">late</text>
<circle cx="760.0" cy="42.0" r="4" fill="#f97316" />
<text x="766.0" y="36.0" font-size="10">middle</text>
<circle cx="760.0" cy="42.0" r="4" fill="#f97316" />
<text x="766.0" y="36.0" font-size="10">middle</text>
<circle cx="760.0" cy="42.0" r="4" fill="#0f172a" />
<text x="766.0" y="36.0" font-size="10">sink</text>
<circle cx="760.0" cy="42.0" r="4" fill="#0f172a" />
<text x="766.0" y="36.0" font-size="10">sink</text>
<circle cx="760.0" cy="42.0" r="4" fill="#16a34a" />
<text x="766.0" y="36.0" font-size="10">very_late</text>
<circle cx="760.0" cy="42.0" r="4" fill="#16a34a" />
<text x="766.0" y="36.0" font-size="10">very_late</text>
</svg>
