<svg xmlns="http://www.w3.org/2000/svg" width="920" height="480" viewBox="0 0 920 480">
  <rect width="100%" height="100%" fill="white" />
  <text x="460.0" y="26" text-anchor="middle" font-size="18" font-family="Arial">PCA Components by Layer</text>
  <line x1="64" y1="44" x2="64" y2="408" stroke="#111827" />
  <line x1="64" y1="408" x2="884" y2="408" stroke="#111827" />
  <text x="460.0" y="468" text-anchor="middle" font-size="12">layer</text>
  <text x="20" y="226.0" transform="rotate(-90 20,226.0)" text-anchor="middle" font-size="12">components for 95% variance</text>
  <polyline points="64.0,116.8 118.7,110.2 173.3,96.9 228.0,149.9 282.7,130.0 337.3,96.9 392.0,103.6 446.7,116.8 501.3,103.6 556.0,143.3 610.7,83.7 665.3,103.6 720.0,96.9 774.7,96.9 829.3,90.3 884.0,90.3" fill="none" stroke="#2563eb" stroke-width="2" />
<polyline points="64.0,57.2 118.7,50.6 173.3,50.6 228.0,57.2 282.7,63.9 337.3,90.3 392.0,83.7 446.7,70.5 501.3,77.1 556.0,70.5 610.7,57.2 665.3,57.2 720.0,57.2 774.7,63.9 829.3,50.6 884.0,50.6" fill="none" stroke="#dc2626" stroke-width="2" />
<polyline points="64.0,116.8 118.7,110.2 173.3,103.6 228.0,163.1 282.7,136.7 337.3,103.6 392.0,110.2 446.7,116.8 501.3,103.6 556.0,149.9 610.7,83.7 665.3,110.2 720.0,103.6 774.7,103.6 829.3,90.3 884.0,96.9" fill="none" stroke="#059669" stroke-width="2" />
<polyline points="64.0,57.2 118.7,50.6 173.3,50.6 228.0,50.6 282.7,57.2 337.3,83.7 392.0,77.1 446.7,70.5 501.3,70.5 556.0,63.9 610.7,57.2 665.3,50.6 720.0,57.2 774.7,57.2 829.3,50.6 884.0,50.6" fill="none" stroke="#7c3aed" stroke-width="2" />
<polyline points="64.0,136.7 118.7,116.8 173.3,110.2 228.0,176.4 282.7,149.9 337.3,116.8 392.0,123.4 446.7,116.8 501.3,110.2 556.0,149.9 610.7,103.6 665.3,123.4 720.0,123.4 774.7,123.4 829.3,110.2 884.0,110.2" fill="none" stroke="#d97706" stroke-width="2" />
<polyline points="64.0,57.2 118.7,44.0 173.3,44.0 228.0,44.0 282.7,50.6 337.3,70.5 392.0,63.9 446.7,57.2 501.3,50.6 556.0,50.6 610.7,50.6 665.3,44.0 720.0,50.6 774.7,50.6 829.3,50.6 884.0,50.6" fill="none" stroke="#0891b2" stroke-width="2" />
  <text x="64" y="436" font-size="12" fill="#2563eb">long:key</text>
<text x="314" y="436" font-size="12" fill="#dc2626">long:value</text>
<text x="564" y="436" font-size="12" fill="#059669">medium:key</text>
<text x="64" y="452" font-size="12" fill="#7c3aed">medium:value</text>
<text x="314" y="452" font-size="12" fill="#d97706">short:key</text>
<text x="564" y="452" font-size="12" fill="#0891b2">short:value</text>
</svg>
